<svg width="16" height="16" viewBox="0 0 16 16" fill="none" xmlns="http://www.w3.org/2000/svg">
  <g id="troubleshooting">
    <path
      fill-rule="evenodd"
      clip-rule="evenodd"
      d="M9.854 1.5C8.18 1.5 6.82 2.86 6.82 4.534c0 .345.06.676.17.984L2.15 10.36a1.2 1.2 0 0 0 0 1.697l1.793 1.793a1.2 1.2 0 0 0 1.697 0l4.84-4.84c.308.11.64.17.984.17 1.674 0 3.034-1.36 3.034-3.034 0-.29-.04-.57-.12-.83l-1.62 1.62a.75.75 0 0 1-1.06 0L9.6 5.84a.75.75 0 0 1 0-1.06l1.62-1.62a3.02 3.02 0 0 0-1.366-.66ZM8 10.75a.75.75 0 1 1-1.5 0 .75.75 0 0 1 1.5 0Z"
      fill="#6A727C"
    />
  </g>
</svg>
